<?xml version="1.0" encoding="UTF-8"?>
<svg width="500px" height="122px" viewBox="0 0 500 122" version="1.1" xmlns="http://www.w3.org/2000/svg" xmlns:xlink="http://www.w3.org/1999/xlink">
    <title>LOGO</title>
    <g id="Symbols" stroke="none" stroke-width="1" fill="none" fill-rule="evenodd">
        <g id="LOGO">
            <path d="M146.111145,83.4492937 C147.015769,83.3583444 147.920393,83.2901324 148.825017,83.2446578 C149.729641,83.1991831 150.634265,83.1764458 151.538889,83.1764458 C152.941056,83.1764458 154.320607,83.2105518 155.677543,83.2787638 C157.034479,83.3469757 158.41403,83.3356071 159.816197,83.2446578 L159.816197,83.2446578 L160.358971,69.0565663 C160.766052,69.0565663 161.738523,68.9883544 163.276383,68.8519304 C164.814244,68.7155064 166.634799,68.5449765 168.73805,68.3403406 C170.8413,68.1357046 173.068936,67.8969627 175.420958,67.6241148 C177.772981,67.3512669 179.978001,67.0670503 182.03602,66.7714651 C184.09404,66.4758798 185.858056,66.1802946 187.32807,65.8847094 C188.798084,65.5891241 189.668784,65.2821702 189.940171,64.9638477 C190.618639,64.2362532 191.184029,63.2358109 191.636341,61.9625206 C192.088653,60.6892304 192.439195,59.3249908 192.687966,57.8698019 C192.936738,56.4146131 193.117663,54.9821615 193.230741,53.5724473 C193.343819,52.1627331 193.400358,50.9576548 193.400358,49.9572125 C193.400358,49.366042 193.366434,48.4338116 193.298588,47.1605214 C193.230741,45.8872311 193.128971,44.5798349 192.993277,43.2383327 C192.857583,41.8968304 192.665351,40.6349088 192.416579,39.4525679 C192.167808,38.2702269 191.862497,37.4744205 191.500648,37.0651486 C190.957873,36.4285035 189.861017,35.8600704 188.210078,35.3598492 C186.55914,34.859628 184.7612,34.4389875 182.816259,34.0979276 C180.871317,33.7568677 179.016838,33.5067571 177.252822,33.3475958 C175.488805,33.1884346 174.199716,33.1088539 173.385555,33.1088539 C168.681511,33.1088539 163.966159,33.3475958 159.239499,33.8250797 C154.512839,34.3025635 149.820103,34.7004667 145.16129,35.0187893 C145.251753,38.8841347 145.353523,42.7267428 145.466601,46.5466136 C145.579679,50.3664844 145.704065,54.2090924 145.839758,58.0744379 C146.020683,62.3490552 146.111145,66.5781978 146.111145,70.7618658 L146.111145,70.7618658 L146.111145,83.4492937 Z M157.99271,57.9367507 L157.780793,57.9380139 C157.6451,55.7552306 157.577253,53.5951846 157.577253,51.457876 C157.577253,50.1391111 157.565945,48.8203462 157.543329,47.5015813 C157.520714,46.1828164 157.441559,44.8413141 157.305866,43.4770746 C159.024651,43.2042267 160.720821,42.9768534 162.394375,42.7949548 C164.067929,42.6130562 165.741483,42.5221069 167.415037,42.5221069 C167.641193,42.5221069 168.003043,42.5334755 168.500586,42.5562129 C168.998129,42.5789502 169.518288,42.6130562 170.061062,42.6585308 C170.603836,42.7040055 171.123995,42.7722175 171.621538,42.8631668 C172.119081,42.9541161 172.480931,43.0678027 172.707087,43.2042267 C173.068936,43.4315999 173.362939,43.8067658 173.589095,44.3297243 C173.815251,44.8526828 173.984868,45.4211159 174.097946,46.0350238 C174.211024,46.6489316 174.290179,47.274208 174.33541,47.9108531 C174.380641,48.5474983 174.403257,49.0704568 174.403257,49.4797286 C174.403257,50.5711203 174.324102,51.6738806 174.165793,52.7880096 C174.007484,53.9021385 173.521248,54.8457376 172.707087,55.6188067 C172.209544,56.1190278 171.259689,56.516931 169.857522,56.8125163 C168.455355,57.1081015 166.962725,57.3354748 165.379634,57.4946361 C163.796542,57.6537973 162.281297,57.767484 160.833899,57.8356959 C159.386501,57.9039079 158.368799,57.9380139 157.780793,57.9380139 L157.99271,57.9367507 Z M222.913711,77.7194875 C225.89897,77.7194875 228.872921,77.6740129 231.835564,77.5830636 C234.798207,77.4921143 237.772158,77.3784277 240.757417,77.2420037 L240.757417,77.2420037 L240.214643,66.3962992 C237.138921,66.6236725 234.085816,66.839677 231.055326,67.044313 C228.024836,67.2489489 224.994346,67.3512669 221.963856,67.3512669 C220.878308,67.3512669 219.702297,67.3285296 218.435823,67.2830549 C217.16935,67.2375803 216.015954,67.044313 214.975637,66.7032531 C213.935319,66.3621932 213.064619,65.7823914 212.363535,64.9638477 C211.662452,64.1453039 211.31191,62.962963 211.31191,61.4168248 L211.31191,61.4168248 L211.31191,60.871129 C211.31191,60.6892304 211.334526,60.5073318 211.379757,60.3254331 C217.305043,60.0980599 223.207714,59.8820553 229.087769,59.6774194 C234.967824,59.4727834 240.870495,59.2113042 246.795781,58.8929816 C246.75055,58.6201337 246.694011,58.1426498 246.626164,57.4605301 C246.558317,56.7784103 246.479163,56.0053412 246.3887,55.1413228 C246.298238,54.2773044 246.196468,53.3678114 246.08339,52.4128437 C245.970312,51.457876 245.845926,50.5597516 245.710233,49.7184706 C245.574539,48.8771895 245.450153,48.1268577 245.337075,47.4674753 C245.223997,46.8080928 245.122227,46.3419777 245.031765,46.0691297 C244.443759,44.7048902 243.335595,43.5566552 241.707272,42.6244248 C240.078949,41.6921945 238.258393,40.9304941 236.245605,40.3393236 C234.232817,39.7481531 232.208721,39.3275126 230.173318,39.077402 C228.137914,38.8272914 226.419129,38.7022361 225.016962,38.7022361 C223.43387,38.7022361 221.556775,38.8045541 219.385678,39.00919 C217.214581,39.2138259 215.043484,39.5776232 212.872386,40.1005817 C210.701289,40.6235402 208.688501,41.3397659 206.834022,42.249259 C204.979543,43.158752 203.577376,44.2956183 202.627521,45.6598579 C201.225354,47.6152679 200.264191,49.6275213 199.744033,51.6966179 C199.223874,53.7657146 198.963794,56.0053412 198.963794,58.4154978 C198.963794,58.642871 198.952487,58.8816129 198.929871,59.1317235 C198.907255,59.3818341 198.918563,59.620576 198.963794,59.8479493 C199.009026,61.3031382 199.110796,62.8151703 199.269105,64.3840458 C199.427414,65.9529213 199.721417,67.4876908 200.151113,68.9883544 C200.58081,70.4890179 201.191431,71.8759948 201.982977,73.149285 C202.774523,74.4225753 203.871379,75.4684923 205.273546,76.287036 C205.81632,76.6053586 206.924484,76.8554692 208.598039,77.0373678 C210.271593,77.2192664 212.069533,77.367059 213.991858,77.4807456 C215.914184,77.5944322 217.723432,77.6626442 219.419602,77.6853816 C220.776537,77.7035714 221.793335,77.7144853 222.469993,77.7181233 L222.913711,77.7194875 Z M214.90779,54.663839 C214.772096,53.9817192 214.70425,53.2768621 214.70425,52.5492677 C214.70425,52.1854704 214.738173,51.7420926 214.80602,51.2191341 C214.873867,50.6961756 214.975637,50.1618484 215.11133,49.6161526 C215.247024,49.0704568 215.416641,48.5588669 215.620181,48.0813831 C215.823722,47.6038992 216.083801,47.2287334 216.400419,46.9558855 C216.8075,46.5466136 217.37289,46.228291 218.096589,46.0009178 C218.820288,45.7735445 219.589219,45.6030146 220.40338,45.4893279 C221.217541,45.3756413 222.031703,45.3074293 222.845864,45.284692 C223.660026,45.2619547 224.338494,45.250586 224.881268,45.250586 C226.509591,45.250586 228.036144,45.3301666 229.460926,45.4893279 C230.885709,45.6484892 232.152182,46.0122864 233.260347,46.5807196 C234.368511,47.1491527 235.29575,48.0131711 236.042065,49.1727747 C236.78838,50.3323784 237.297231,51.9126225 237.568618,53.9135072 L237.568618,53.9135072 L214.90779,54.663839 Z M275.223586,84.4724734 C276.670984,84.4724734 278.118382,84.4383674 279.565781,84.3701554 C281.013179,84.3019434 282.460577,84.2223628 283.907975,84.1314135 L283.907975,84.1314135 L285.061371,72.1261053 C283.387816,72.4899026 281.714262,72.7854878 280.040708,73.0128611 C278.367154,73.2402343 276.6936,73.3539209 275.020046,73.3539209 C273.798803,73.3539209 272.848948,73.217497 272.17048,72.9446491 C271.492013,72.6718012 271.005777,72.2625293 270.711775,71.7168335 C270.417772,71.1711377 270.236847,70.5003865 270.169,69.7045801 C270.101153,68.9087737 270.06723,68.0106493 270.06723,67.010207 C270.06723,64.918373 270.089846,62.826539 270.135077,60.734705 C270.180308,58.642871 270.248155,56.551037 270.338617,54.459203 L270.338617,54.459203 L275.291433,54.459203 C275.608051,53.2313874 275.868131,52.0149405 276.071671,50.8098622 C276.275211,49.6047839 276.376981,48.3655997 276.376981,47.0923094 C276.376981,46.7739868 276.365674,46.4784016 276.343058,46.2055537 C276.320442,45.9327058 276.309135,45.6371205 276.309135,45.318798 L276.309135,45.318798 L270.610004,44.9777381 L270.745698,34.5413055 C268.16752,34.3594068 265.60065,34.2570889 263.045087,34.2343516 C260.489525,34.2116142 257.922655,33.950135 255.344477,33.4499138 L255.344477,33.4499138 L255.344477,43.5452866 L251.273669,43.4088626 C251.092745,45.4552219 250.990974,47.478844 250.968359,49.4797286 C250.945743,51.4806133 250.843973,53.5042353 250.663048,55.5505947 L250.663048,55.5505947 L254.869549,55.5505947 L254.869549,60.9734469 C254.869549,62.1785252 254.880857,63.4177095 254.903473,64.6909997 C254.926088,65.96429 254.971319,67.2034743 255.039166,68.4085525 C255.107013,69.6136308 255.208783,70.7391285 255.344477,71.7850455 C255.48017,72.8764371 255.683711,73.9791974 255.955098,75.0933264 C256.226485,76.2074554 256.588334,77.2533724 257.040646,78.2310774 C257.492958,79.2087824 258.069656,80.1069068 258.77074,80.9254505 C259.471823,81.7439942 260.365139,82.4033767 261.450688,82.9035979 C262.174387,83.2219204 263.146857,83.4833997 264.3681,83.6880356 C265.589342,83.8926716 266.878431,84.0518328 268.235367,84.1655195 C269.592302,84.2792061 270.904007,84.3587867 272.17048,84.4042614 C273.436954,84.449736 274.454656,84.4724734 275.223586,84.4724734 Z M304.601246,83.5175057 C306.2748,83.5175057 308.355435,83.4947683 310.843151,83.4492937 C313.330866,83.403819 315.863813,83.3015011 318.441991,83.1423398 C321.020169,82.9831785 323.507885,82.7103306 325.905138,82.3237961 C328.302391,81.9372615 330.292564,81.4029344 331.875655,80.7208146 C333.775365,79.9022708 335.245379,78.8222479 336.285697,77.4807456 C337.326014,76.1392434 337.846173,74.3771006 337.846173,72.1943173 C337.846173,70.8300778 337.608709,69.4317322 337.133782,67.9992807 C336.658854,66.5668291 336.01431,65.2025896 335.200148,63.906562 C334.385987,62.6105344 333.424824,61.4736681 332.316659,60.4959631 C331.208495,59.5182581 329.998561,58.8020323 328.686856,58.3472858 C327.239458,57.8925393 325.543288,57.4946361 323.598347,57.1535762 C321.653406,56.8125163 319.62931,56.5282997 317.526059,56.3009264 C315.422809,56.0735532 313.36479,55.8689172 311.352001,55.6870186 C309.339213,55.50512 307.586505,55.3459588 306.093875,55.2095348 C305.912951,55.2095348 305.426715,55.1640601 304.635169,55.0731108 C303.843623,54.9821615 303.006846,54.8912122 302.124838,54.8002629 C301.24283,54.7093136 300.439976,54.6183643 299.716277,54.527415 C298.992578,54.4364657 298.608113,54.3682537 298.562882,54.3227791 C298.381957,54.0954058 298.280187,53.7770833 298.257571,53.3678114 C298.234955,52.9585395 298.223648,52.6174796 298.223648,52.3446317 C298.223648,51.7989359 298.246263,51.2646087 298.291494,50.7416502 C298.336726,50.2186917 298.472419,49.7071019 298.698575,49.2068807 C298.698575,49.2068807 299.015194,49.1841434 299.64843,49.1386688 C300.281667,49.0931941 301.027982,49.0363508 301.887374,48.9681388 C302.746767,48.8999268 303.640083,48.8430835 304.567323,48.7976089 C305.494562,48.7521342 306.229569,48.7293969 306.772343,48.7293969 C311.114538,48.5474983 315.422809,48.422443 319.697157,48.354231 C323.971504,48.286019 328.25716,48.2064384 332.554123,48.1154891 C332.41843,46.7967242 332.282736,45.4665906 332.147042,44.1250884 C332.011349,42.7835861 331.943502,41.4534526 331.943502,40.1346877 C331.943502,38.8159227 331.95481,37.5085265 331.977426,36.2124989 C332.000041,34.9164713 332.033965,33.6090751 332.079196,32.2903102 C328.82255,31.6536651 325.565904,31.1307066 322.309258,30.7214347 C319.052612,30.3121628 315.750735,30.1075269 312.403627,30.1075269 C309.554062,30.1075269 306.580111,30.3121628 303.481774,30.7214347 C300.383437,31.1307066 297.477333,31.858301 294.763461,32.904218 C293.18037,33.5408631 291.846049,34.3480382 290.760501,35.3257432 C289.674952,36.3034482 288.781636,37.4289459 288.080553,38.7022361 C287.379469,39.9755264 286.870618,41.3511346 286.554,42.8290608 C286.237382,44.306987 286.079072,45.8644938 286.079072,47.5015813 C286.079072,48.5020236 286.180843,49.7298392 286.384383,51.1850281 C286.587923,52.640217 286.927157,54.0840372 287.402085,55.5164887 C287.877012,56.9489402 288.510249,58.2222305 289.301795,59.3363595 C290.093341,60.4504884 291.054504,61.1667142 292.185283,61.4850368 C293.361294,61.848834 294.639076,62.0989446 296.018627,62.2353685 C297.398178,62.3717925 298.743806,62.5082164 300.055511,62.6446404 C302.950307,62.8720137 305.833796,63.0311749 308.705977,63.1221242 C311.578157,63.2130735 314.461646,63.3722348 317.356442,63.5996081 C317.401674,63.5996081 317.559983,63.6109768 317.83137,63.6337141 C318.102757,63.6564514 318.39676,63.6791887 318.713378,63.7019261 C319.029997,63.7246634 319.312691,63.7587694 319.561463,63.804244 C319.810235,63.8497187 319.957236,63.8951933 320.002467,63.940668 C320.273854,64.3954145 320.477395,64.9752163 320.613088,65.6800734 C320.748782,66.3849305 320.816629,66.9874697 320.816629,67.4876908 C320.816629,67.7605388 320.794013,68.0674927 320.748782,68.4085525 C320.703551,68.7496124 320.590473,69.0110917 320.409548,69.1929903 C320.183392,69.3748889 319.855466,69.5113129 319.425769,69.6022622 C318.996073,69.6932115 318.532453,69.7614234 318.03491,69.8068981 C317.537367,69.8523727 317.06244,69.8751101 316.610128,69.8751101 L316.610128,69.8751101 L315.592426,69.8751101 C314.23549,69.8751101 312.889862,69.8523727 311.555542,69.8068981 C310.221222,69.7614234 308.898209,69.7159488 307.586505,69.6704741 C304.194165,69.5795248 300.813133,69.4999442 297.44341,69.4317322 C294.073686,69.3635202 290.692654,69.2839396 287.300315,69.1929903 C287.707395,73.7404555 287.843089,78.3333953 287.707395,82.9718098 C290.55696,83.1537085 293.372602,83.2901324 296.154321,83.3810817 C298.936039,83.472031 301.751681,83.5175057 304.601246,83.5175057 Z M372.515882,86.0413489 C374.68698,85.8594503 376.835461,85.700289 378.961327,85.563865 C381.087193,85.4274411 383.258291,85.3364918 385.474619,85.2910171 C385.926931,82.3351647 386.379243,79.4134183 386.831555,76.5257779 C387.283867,73.6381375 387.690948,70.7163911 388.052797,67.7605388 C388.278953,66.0779766 388.493801,64.3840458 388.697342,62.6787464 C388.900882,60.9734469 389.002652,59.2795161 389.002652,57.596954 L389.002652,57.596954 L389.002652,57.3241061 C389.002652,57.2331568 388.980037,57.1422075 388.934805,57.0512582 C388.437262,55.0048989 387.464792,53.413286 386.017393,52.2764197 C384.569995,51.1395534 382.907749,50.309641 381.030654,49.7866825 C379.15356,49.263724 377.186003,48.9454015 375.127984,48.8317148 C373.069964,48.7180282 371.226793,48.6611849 369.59847,48.6611849 L369.59847,48.6611849 L366.206131,48.6611849 C365.03012,48.6611849 363.865417,48.7293969 362.712021,48.8658208 C361.558626,49.0022448 360.439154,49.263724 359.353605,49.6502586 C358.268056,50.0367931 357.295586,50.5938576 356.436193,51.321452 C356.526656,48.320125 356.617118,45.3301666 356.70758,42.3515769 C356.798043,39.3729872 356.888505,36.3830289 356.978967,33.3817018 L356.978967,33.3817018 L342.052674,34.3366695 C342.459755,42.5221069 342.889451,50.6734383 343.341763,58.7906636 C343.794075,66.907889 344.269002,75.0592204 344.766545,83.2446578 L344.766545,83.2446578 L354.332943,83.7221416 C354.468636,79.9932201 354.796562,76.3097733 355.316721,72.6718012 C355.83688,69.033829 356.277884,65.3731195 356.639734,61.6896727 C357.318201,61.3258755 358.166286,60.9734469 359.183988,60.632387 C360.20169,60.2913272 361.275931,59.9843733 362.406711,59.7115253 C363.53749,59.4386774 364.645655,59.2113042 365.731203,59.0294056 C366.816752,58.847507 367.766607,58.7565577 368.580769,58.7565577 C369.75678,58.7565577 370.548325,58.9498249 370.955406,59.3363595 C371.362487,59.722894 371.701721,60.4391198 371.973108,61.4850368 C372.154033,62.1216819 372.255803,62.9402256 372.278419,63.940668 C372.301034,64.9411103 372.312342,65.7596541 372.312342,66.3962992 C372.448036,69.6704741 372.515882,72.9332804 372.515882,76.184718 L372.515882,76.184718 L372.515882,86.0413489 Z M408.135447,75.5367042 C408.723452,75.5367042 409.910771,75.5139669 411.697403,75.4684923 C413.484035,75.4230176 415.56467,75.3661743 417.939308,75.2979623 C420.313946,75.2297503 422.812969,75.1501697 425.436378,75.0592204 C428.059787,74.9682711 430.490964,74.8545845 432.729908,74.7181605 C434.968852,74.5817366 436.868562,74.4453126 438.429038,74.3088886 C439.989515,74.1724647 440.905446,74.0133034 441.176833,73.8314048 C441.719608,73.4676076 442.217151,72.6263265 442.669463,71.3075616 C443.121775,69.9887967 443.50624,68.5449765 443.822858,66.976101 C444.139477,65.4072255 444.388248,63.8951933 444.569173,62.4400045 C444.750098,60.9848156 444.863176,59.9388986 444.908407,59.3022535 C444.953638,58.9384563 444.976254,58.5860277 444.976254,58.2449678 L444.976254,58.2449678 L444.976254,57.1876822 C444.976254,56.3236638 444.94233,55.1981661 444.874483,53.8111892 C444.806637,52.4242124 444.670943,51.0144981 444.467403,49.5820466 C444.263862,48.1495951 443.981167,46.7967242 443.619318,45.5234339 C443.257468,44.2501437 442.782541,43.295176 442.194535,42.6585308 C441.832686,42.249259 441.097679,41.8968304 439.989515,41.6012452 C438.88135,41.3056599 437.603569,41.066918 436.156171,40.8850194 C434.708773,40.7031208 433.148297,40.5553282 431.474742,40.4416416 C429.801188,40.3279549 428.184173,40.2483743 426.623697,40.2028996 C425.063221,40.157425 423.649746,40.123319 422.383273,40.1005817 C421.116799,40.0778443 420.144329,40.0437383 419.465861,39.9982637 C418.69693,39.952789 417.679229,39.9300517 416.412755,39.9300517 C415.146282,39.9300517 413.778038,39.9414204 412.308024,39.9641577 C410.838011,39.986895 409.334073,40.0323697 407.796213,40.1005817 C406.258352,40.1687936 404.810954,40.2711116 403.454018,40.4075356 C402.097083,40.5439595 400.921072,40.7031208 399.925985,40.8850194 C398.930899,41.066918 398.252431,41.271554 397.890582,41.4989272 C397.07642,42.044623 396.454491,43.0109594 396.024795,44.3979363 C395.595099,45.7849132 395.267172,47.274208 395.041016,48.8658208 C394.814861,50.4574337 394.679167,52.0149405 394.633936,53.5383413 C394.588705,55.0617422 394.566089,56.2554518 394.566089,57.1194702 L394.566781,57.3686527 C394.569551,57.8976436 394.580628,58.6103891 394.600012,59.5068894 C394.622628,60.5528064 394.656551,61.6328294 394.701783,62.7469584 C394.747014,63.8610873 394.814861,64.9297417 394.905323,65.9529213 C394.995785,66.976101 395.108863,67.7378014 395.244557,68.2380226 C395.425482,68.8746677 395.730792,69.5454188 396.160488,70.2502759 C396.590185,70.9551331 397.07642,71.6372528 397.619194,72.2966353 C398.161969,72.9560177 398.749974,73.5471882 399.383211,74.0701467 C400.016448,74.5931052 400.649684,74.9682711 401.282921,75.1956444 C401.554308,75.2865937 402.00662,75.3548056 402.639857,75.4002803 C403.273094,75.4457549 403.951562,75.4798609 404.675261,75.5025983 C405.39896,75.5253356 406.088735,75.5367042 406.744588,75.5367042 L406.744588,75.5367042 L408.135447,75.5367042 Z M418.583852,68.3744466 C418.176772,68.3744466 417.498304,68.3403406 416.548449,68.2721286 C415.598594,68.2039166 414.614815,68.09023 413.597113,67.9310687 C412.579412,67.7719074 411.629557,67.5786401 410.747548,67.3512669 C409.86554,67.1238936 409.266227,66.8283084 408.949608,66.4645112 C408.678221,66.1916633 408.452065,65.5550181 408.27114,64.5545758 C408.090216,63.5541334 407.943214,62.4513731 407.830136,61.2462948 C407.717058,60.0412166 407.626596,58.9043503 407.558749,57.8356959 C407.490902,56.7670416 407.456979,56.0280785 407.456979,55.6188067 C407.456979,55.2095348 407.468287,54.6752076 407.490902,54.0158252 C407.513518,53.3564427 407.581365,52.6856916 407.694443,52.0035718 C407.807521,51.321452 407.977138,50.6961756 408.203294,50.1277424 C408.42945,49.5593093 408.746068,49.1386688 409.153149,48.8658208 C409.379305,48.7293969 409.876848,48.6043416 410.645778,48.490655 C411.414708,48.3769683 412.240178,48.2973877 413.122186,48.251913 C414.004194,48.2064384 414.852279,48.1723324 415.666441,48.1495951 C416.480602,48.1268577 417.045992,48.1154891 417.36261,48.1154891 C417.950616,48.1154891 418.843932,48.1382264 420.042558,48.1837011 C421.241185,48.2291757 422.462427,48.3314937 423.706285,48.490655 C424.950143,48.6498162 426.092231,48.8885582 427.132548,49.2068807 C428.172865,49.5252033 428.873949,49.9799498 429.235798,50.5711203 C429.507186,51.0258668 429.733342,51.6056686 429.914266,52.3105257 C430.095191,53.0153828 430.230885,53.7429773 430.321347,54.493309 C430.411809,55.2436408 430.479656,55.9826039 430.524887,56.7101983 C430.570119,57.4377927 430.592734,58.0744379 430.592734,58.6201337 C430.592734,59.0294056 430.581426,59.5864701 430.558811,60.2913272 C430.536195,60.9961843 430.479656,61.71241 430.389194,62.4400045 C430.298731,63.1675989 430.163038,63.8497187 429.982113,64.4863638 C429.801188,65.1230089 429.552417,65.6004928 429.235798,65.9188153 C428.693024,66.4645112 427.969325,66.8965204 427.064701,67.2148429 C426.160077,67.5331655 425.198914,67.7832761 424.181213,67.9651747 C423.163511,68.1470733 422.157117,68.2607599 421.16203,68.3062346 C420.166944,68.3517092 419.307552,68.3744466 418.583852,68.3744466 Z M452.168013,89.2473118 C452.936944,89.2018372 453.67195,89.1677312 454.373034,89.1449939 C455.074117,89.1222565 455.809124,89.1108879 456.578055,89.1108879 C457.889759,89.1108879 459.178848,89.1222565 460.445322,89.1449939 C461.711795,89.1677312 462.978268,89.1336252 464.244742,89.0426759 L464.244742,89.0426759 L464.651823,71.9214694 C465.013672,72.239792 465.432061,72.6149579 465.906988,73.046967 C466.381916,73.4789762 466.868151,73.9109854 467.365694,74.3429946 C467.863237,74.7750038 468.372088,75.1842757 468.892247,75.5708102 C469.412406,75.9573448 469.898641,76.2642987 470.350953,76.4916719 C471.165114,76.9918931 472.047123,77.2874783 472.996978,77.3784277 C473.946833,77.469377 474.874072,77.5148516 475.778696,77.5148516 C477.8141,77.5148516 479.826888,77.3897963 481.81706,77.1396857 C483.807233,76.8895751 485.820021,76.6053586 487.855425,76.287036 C489.21236,76.1051374 490.388371,75.8550268 491.383458,75.5367042 C492.378544,75.2183817 493.27186,74.7977412 494.063406,74.2747827 C494.854952,73.7518242 495.589959,73.0924417 496.268427,72.2966353 C496.946894,71.5008289 497.670594,70.5344925 498.439524,69.3976262 C498.801373,68.8519304 499.084068,68.2266539 499.287609,67.5217968 C499.491149,66.8169397 499.649458,66.0779766 499.762536,65.3049075 C499.875614,64.5318385 499.943461,63.770138 499.966077,63.0198063 C499.988692,62.2694745 500,61.5759861 500,60.9393409 C500,59.9843733 499.966077,58.9498249 499.89823,57.8356959 C499.830383,56.721567 499.728613,55.5847007 499.592919,54.425097 C499.457226,53.2654934 499.276301,52.1399958 499.050145,51.0486041 C498.823989,49.9572125 498.575217,48.9567701 498.30383,48.0472771 C497.89675,46.8649361 497.308744,45.8531251 496.539814,45.0118441 C495.770883,44.170563 494.888875,43.4770746 493.893789,42.9313788 C492.898703,42.3856829 491.83577,41.9423051 490.70499,41.6012452 C489.57421,41.2601853 488.466046,40.9759687 487.380497,40.7485955 C486.973416,40.6576461 486.532412,40.6235402 486.057485,40.6462775 C485.582557,40.6690148 485.141553,40.6803835 484.734472,40.6803835 C481.568289,40.6803835 478.413413,40.8054388 475.269845,41.0555494 C472.126277,41.3056599 468.994017,41.6126138 465.873065,41.9764111 L465.873065,41.9764111 L465.398137,38.3611762 C463.136578,38.5430748 460.897634,38.7022361 458.681305,38.8386601 C456.464977,38.975084 454.226033,39.1342453 451.964473,39.3161439 C452.145398,43.6362359 452.348938,47.9335905 452.575094,52.2082078 C452.80125,56.4828251 452.914328,60.7801797 452.914328,65.1002716 L452.914328,65.1002716 L452.914328,65.9188153 C452.914328,69.7841608 452.835173,73.6608748 452.676864,77.5489576 C452.518555,81.4370403 452.348938,85.3364918 452.168013,89.2473118 Z M478.571722,67.8022238 L477.610559,67.7946447 C476.660704,67.7719074 475.959621,67.7605388 475.507309,67.7605388 C473.788524,67.7605388 471.967968,67.5559028 470.045642,67.1466309 C468.123317,66.7373591 466.325377,66.2826126 464.651823,65.7823914 L464.651823,65.7823914 L464.041202,56.6419863 C465.036288,56.2327145 466.144452,55.8120739 467.365694,55.3800647 C468.586936,54.9480555 469.830794,54.561521 471.097268,54.2204611 C472.363741,53.8794012 473.630214,53.6065533 474.896688,53.4019174 C476.163161,53.1972814 477.339172,53.0949635 478.424721,53.0949635 C479.736426,53.0949635 481.070746,53.3791801 482.427681,53.9476132 C483.784617,54.5160464 484.915397,55.3232214 485.820021,56.3691384 C486.181871,56.7784103 486.408026,57.3013688 486.498489,57.9380139 C486.588951,58.574659 486.634182,59.1658295 486.634182,59.7115253 C486.634182,60.1207972 486.600259,60.6551244 486.532412,61.3145068 C486.464565,61.9738893 486.362795,62.6560091 486.227102,63.3608662 C486.091408,64.0657233 485.933099,64.7251057 485.752174,65.3390135 C485.571249,65.9529213 485.367709,66.3962992 485.141553,66.6691471 C484.870166,67.0329443 484.293468,67.2830549 483.41146,67.4194789 C482.529452,67.5559028 481.579597,67.6582208 480.561895,67.7264328 C479.544193,67.7946447 478.560414,67.8173821 477.610559,67.7946447 L478.571722,67.8022238 Z" id="PetShop" fill="#471F1F" fill-rule="nonzero"></path>
            <g id="Group-11">
                <path d="M60.6777937,2.44752688 C92.834852,2.44752688 118.903226,28.5164817 118.903226,60.6733333 C118.903226,92.8301849 92.834852,118.89914 60.6777937,118.89914 C28.5207353,118.89914 2.4516129,92.8301849 2.4516129,60.6733333 C2.4516129,28.5164817 28.5207353,2.44752688 60.6777937,2.44752688" id="Fill-3" fill="#FFFAF2"></path>
                <path d="M60.6785423,2.44752688 C92.8356006,2.44752688 118.903226,28.5388954 118.903226,60.723395 C118.903226,65.5225224 118.320036,70.1830333 117.227022,74.6442363 C113.855899,77.161062 109.757846,79.6763892 106.558162,79.9573686 C99.9656426,80.5358114 93.0250064,79.2627876 90.8277497,72.6638938 C88.6297443,66.0642506 90.2475541,54.1394867 90.2475541,54.1394867 C90.2475541,54.1394867 89.4382749,46.0352927 83.076337,45.3407117 C76.7136504,44.6461308 70.236422,42.5623878 69.0797741,38.1626257 C67.9231261,33.7636129 67.5765061,22.0711252 64.9158415,18.3666934 C62.2559256,14.6622615 60.6785423,15.0091774 60.6785423,15.0091774 L60.6777937,2.44752688 C28.5207353,2.44752688 2.4516129,28.5388954 2.4516129,60.723395 C2.4516129,65.5217731 3.03555166,70.1822841 4.1278166,74.643487 C7.49968862,77.1603128 11.5977409,79.6763892 14.7974258,79.9573686 C21.3906934,80.5358114 28.3313296,79.2627876 30.5293349,72.6638938 C32.7265917,66.0642506 31.1087819,54.1394867 31.1087819,54.1394867 C31.1087819,54.1394867 31.9180611,46.0352927 38.279999,45.3407117 C44.6426856,44.6461308 51.119914,42.5623878 52.2765619,38.1626257 C53.4332099,33.7636129 53.7798299,22.0711252 56.4397458,18.3666934 C59.1004104,14.6622615 60.6785423,15.0091774 60.6785423,15.0091774 L60.6785423,2.44752688" id="Fill-4" fill="#FF662A"></path>
                <path d="M59.655914,71.3382464 C60.7575638,87.0456943 76.3979737,94.4126691 87.7917497,87.9652736 L88.2580645,57.6088172 L77.4151134,62.5154558 C77.4151134,62.5154558 75.2004954,66.7381342 70.187234,68.9067163 C65.1739725,71.0752984 59.655914,71.3382464 59.655914,71.3382464" id="Fill-5" fill="#FDB440"></path>
                <path d="M48.3503646,64.8235201 C49.3590633,65.6139965 50.4390166,66.302045 51.5738954,66.8832122 C54.3424355,68.2986474 57.4553731,69.0661147 60.6781616,69.0661147 C63.8994656,69.0661147 67.0124032,68.2986474 69.7809433,66.8832122 C70.9202755,66.3005606 72.0024555,65.6088009 73.0133809,64.8160978 C72.7907101,64.8027376 72.5687816,64.7834396 72.3461108,64.7604304 C68.0374311,64.3150916 63.9439998,62.1737541 60.6789038,57.9467463 C57.234929,62.417206 52.8891375,64.5548324 48.3503646,64.8235201 Z M114.170365,77.2774205 C112.262818,79.3645751 110.102912,80.8282554 107.854679,81.7196753 C104.568058,83.0215492 101.105527,83.1046791 97.9361798,82.1279026 C95.1520527,81.2698831 92.598761,79.5946669 90.5962084,77.2128464 L90.5962084,87.8000348 C92.0302083,86.594651 92.9520653,85.9147671 92.9646833,85.9051181 C93.9095497,85.2051939 95.2433477,85.4033697 95.9432762,86.3482302 C96.643947,87.2930908 96.44577,88.6261383 95.5009036,89.3268048 C95.4816055,89.3409072 93.1294597,91.0777286 90.1501246,93.8573851 C90.0135532,94.0355207 89.8487768,94.1913893 89.6632178,94.3175686 C84.6063643,99.1227746 78.0769146,106.710606 77.9106537,113.967402 C86.4433983,111.210013 94.080264,106.461958 100.273481,100.26878 C106.618114,93.924186 111.446359,86.0639556 114.170365,77.2774205 Z M92.9728479,14.9233042 C93.1947765,15.2951621 93.4085404,15.6670201 93.6156243,16.038878 C95.5216862,19.4568535 96.8458351,22.8495932 97.6697171,26.1577184 C100.19703,36.3062481 98.0386083,45.6568791 93.6015218,52.6056493 C91.346609,57.3856194 90.4729972,61.647512 90.5924972,65.2673745 L90.5954662,65.3512466 C90.7223885,68.7506664 91.7251493,71.5822791 93.2838448,73.7421724 C94.8210155,75.8753454 96.9022451,77.3516436 99.1875896,78.0560212 C101.456605,78.7559454 103.934189,78.6965669 106.285592,77.7643243 C111.036644,75.8820255 115.321573,70.4622519 116.673184,60.5846367 C116.649433,45.1566152 110.387188,31.1907894 100.273481,21.0771446 C98.0222791,18.8259568 95.5795806,16.7662647 92.9728479,14.9233042 Z M4.68165454,60.5846367 C6.03326621,70.4622519 10.3189366,75.8820255 15.0692467,77.7643243 C17.4206502,78.6965669 19.8982338,78.7559454 22.1672491,78.0560212 C24.4525936,77.3516436 26.5338232,75.8753454 28.0709939,73.7421724 C29.6044534,71.6149373 30.6012763,68.8382497 30.7534346,65.5100841 L30.7534346,65.3928116 C30.7534346,65.3133928 30.7571458,65.2362008 30.7653104,65.1597509 C30.86477,61.5584443 29.9844782,57.3292098 27.7466368,52.5900625 C26.7988015,51.103373 25.9548792,49.5075755 25.2393637,47.8189991 C21.3945815,38.7429938 21.2208983,26.9563594 28.3775374,14.9262731 C25.7730314,16.7684914 23.3318173,18.8274413 21.0813579,21.0771446 C10.9683931,31.1907894 4.70540609,45.1566152 4.68165454,60.5846367 Z M43.444185,113.967402 C43.2771819,106.708379 36.7425366,99.1175789 31.6864252,94.312373 C31.5008663,94.1854514 31.3360899,94.0295828 31.198034,93.8514473 C28.22241,91.0747597 25.8732332,89.3409072 25.8539351,89.3268048 C24.9090687,88.6261383 24.7108917,87.2930908 25.4115625,86.3482302 C26.111491,85.4033697 27.4460312,85.2051939 28.3901554,85.9051181 C28.4027734,85.9147671 29.3216615,86.5931666 30.7534346,87.794097 L30.7534346,77.2202687 C28.750882,79.598378 26.1998171,81.2706253 23.418659,82.1279026 C20.2493114,83.1046791 16.7867807,83.0215492 13.5009021,81.7196753 C11.2519272,80.8282554 9.09276281,79.3645751 7.18447417,77.2774205 C9.90848012,86.0639556 14.7374672,93.924186 21.0813579,100.26878 C27.2745747,106.461958 34.9114405,111.210013 43.444185,113.967402 Z M80.9382342,92.4597634 C80.182638,92.4597634 79.5710356,91.8474225 79.5710356,91.0933155 C79.5710356,90.3377239 80.182638,89.7261253 80.9382342,89.7261253 L86.3238983,89.7261253 L86.3238983,87.3331713 L78.5378431,87.3331713 C77.7829891,87.3331713 77.1699022,86.7215726 77.1699022,85.9667233 C77.1699022,85.211874 77.7829891,84.5995331 78.5378431,84.5995331 L86.3238983,84.5995331 L86.3238983,65.3928116 C86.3238983,65.3371442 86.326125,65.2822191 86.3305784,65.2280362 C86.2890132,63.6359499 86.4055442,61.9525691 86.7016964,60.1875429 C85.4324729,61.1576393 84.1046128,61.9919074 82.7418676,62.674018 C81.8111037,63.1401393 80.8640106,63.5357487 79.9065262,63.8563926 C77.6887252,66.741446 74.8801043,69.0534968 71.7166947,70.670819 C68.3343255,72.4002181 64.5593134,73.3383985 60.6781616,73.3383985 C56.7962676,73.3383985 53.0212555,72.4002181 49.6388863,70.670819 C46.4769611,69.054239 43.6698247,66.7451572 41.4520237,63.8615882 C39.0909711,63.071854 36.7900397,61.8241631 34.6546268,60.1919963 C34.9544901,61.9830006 35.0695367,63.6893906 35.0227759,65.3030016 C35.0242603,65.3326908 35.0250026,65.3623801 35.0250026,65.3928116 L35.0250026,84.5995331 L40.4106666,84.5995331 C41.1662628,84.5995331 41.7778653,85.211874 41.7778653,85.9667233 C41.7778653,86.7215726 41.1662628,87.3331713 40.4106666,87.3331713 L35.0250026,87.3331713 L35.0250026,89.7261253 L42.3330578,89.7261253 C43.088654,89.7261253 43.7002564,90.3377239 43.7002564,91.0933155 C43.7002564,91.8474225 43.088654,92.4597634 42.3330578,92.4597634 L35.8258752,92.4597634 C41.4356945,98.1081443 48.1002311,106.668299 47.6778989,115.152004 C51.8500072,116.143625 56.2024788,116.669867 60.6781616,116.669867 C65.1523599,116.669867 69.5055738,116.143625 73.6769398,115.152004 C73.2538654,106.668299 79.9191442,98.1081443 85.5297058,92.4597634 L80.9382342,92.4597634 Z M71.3069804,77.3449635 C69.7950458,77.3449635 68.5696143,78.8836092 68.5696143,80.7814949 C68.5696143,82.6793805 69.7950458,84.2180262 71.3069804,84.2180262 C72.8189151,84.2180262 74.0443466,82.6793805 74.0443466,80.7814949 C74.0443466,78.8836092 72.8189151,77.3449635 71.3069804,77.3449635 Z M50.047116,77.3449635 C48.5359236,77.3449635 47.3104921,78.8836092 47.3104921,80.7814949 C47.3104921,82.6793805 48.5359236,84.2180262 50.047116,84.2180262 C51.5590507,84.2180262 52.7852245,82.6793805 52.7852245,80.7814949 C52.7852245,78.8836092 51.5590507,77.3449635 50.047116,77.3449635 Z M79.153899,30.3914062 C76.7943309,30.3914062 74.8815888,32.8296363 74.8815888,35.8371579 C74.8815888,38.8461639 76.7943309,41.284394 79.153899,41.284394 C81.5119826,41.284394 83.4262091,38.8461639 83.4262091,35.8371579 C83.4262091,32.8296363 81.5119826,30.3914062 79.153899,30.3914062 Z M42.201682,30.3914062 C39.8421139,30.3914062 37.9293718,32.8296363 37.9293718,35.8371579 C37.9293718,38.8461639 39.8421139,41.284394 42.201682,41.284394 C44.5605079,41.284394 46.4732499,38.8461639 46.4732499,35.8371579 C46.4732499,32.8296363 44.5605079,30.3914062 42.201682,30.3914062 Z M58.0216991,54.330595 C55.4802832,52.5358796 50.7425911,48.7594063 51.4306438,45.958225 C51.7935972,44.4811846 53.2558021,43.5355818 55.2702304,43.0412557 C56.7947831,42.6664289 58.754286,42.4786443 60.6781616,42.4786443 C62.6005527,42.4786443 64.5600556,42.6664289 66.0846083,43.0412557 C68.0990367,43.5355818 69.5619837,44.4811846 69.9241949,45.958225 C70.6122476,48.7594063 65.8738133,52.5358796 63.3316551,54.3313373 C65.9606549,58.2302787 69.2999744,60.162307 72.7803188,60.5222892 C74.4770702,60.6981981 76.2228092,60.5126402 77.9522189,60.0094074 C77.9915574,59.9967894 78.0323804,59.985656 78.0732034,59.9737803 C79.0047095,59.6954435 79.9295355,59.32507 80.8395168,58.86934 C83.5590693,57.5073454 86.1353703,55.3882748 88.3086372,52.6850681 C88.8794167,51.9747526 89.4219911,51.2236145 89.9304228,50.436107 L89.9371029,50.4249735 C93.8516553,44.3624276 95.7643974,36.1392461 93.5310094,27.1753177 C92.7947113,24.2190101 91.607876,21.1788303 89.8940532,18.1082191 C88.3383266,15.3166868 86.3491343,12.4991765 83.8730351,9.69279966 C76.8062066,6.47151546 68.9518658,4.67679997 60.6781616,4.67679997 C52.4051997,4.67679997 44.5523433,6.47077322 37.4855147,9.69057296 C25.8071743,22.926043 25.0174352,36.3864091 29.1605963,46.1660498 C29.785559,47.6416058 30.5233415,49.0340319 31.3509346,50.3277412 C31.3969532,50.3908309 31.4392607,50.4561472 31.4785992,50.5251747 L31.4800836,50.5281437 C32.8547046,52.6353386 34.4705523,54.4768146 36.2370739,55.9924511 C39.0701885,58.4232589 42.2721944,59.9975317 45.4482221,60.451035 C50.0255912,61.1041987 54.6326497,59.3458525 58.0216991,54.330595 Z M60.6781616,83.4461055 C57.8339134,83.4461055 55.5292708,84.9513508 55.5292708,86.8076715 C55.5292708,88.3374103 57.0939042,89.6281507 59.2359971,90.0356357 C59.2382238,90.1529083 59.244904,90.2701809 59.2567797,90.3874534 C59.1179816,90.9626827 58.7194009,91.5297475 58.1671774,92.0136824 C57.5533482,92.5510579 56.7695471,92.9719031 55.9315627,93.2012526 C55.1202988,93.4224375 54.2659852,93.4595491 53.4829263,93.2398486 C52.5892742,92.9889744 51.7668767,92.3825714 51.1864482,91.2989136 C50.8331439,90.6353587 50.0077775,90.3844845 49.3449608,90.7385289 C48.6814019,91.0925732 48.4297839,91.9171923 48.7838304,92.5807472 C49.7569018,94.3984718 51.1805103,95.4279467 52.745886,95.8673477 C54.023274,96.2251032 55.3808236,96.1738893 56.6470781,95.8287517 C57.8858699,95.4902942 59.0474692,94.8645931 59.9611617,94.0637255 C60.2046151,93.850705 60.4317393,93.6243245 60.6395653,93.3868104 C60.8473914,93.6243245 61.0745156,93.850705 61.317969,94.0637255 C62.2324037,94.8645931 63.3932607,95.4902942 64.6320525,95.8287517 C65.8990493,96.1738893 67.2558566,96.2251032 68.5339869,95.8673477 C70.0993626,95.4279467 71.5229711,94.3984718 72.4960424,92.5807472 C72.850089,91.9171923 72.598471,91.0925732 71.9349121,90.7385289 C71.2720954,90.3844845 70.446729,90.6353587 70.0934247,91.2989136 C69.5129961,92.3825714 68.6905987,92.9889744 67.7969466,93.2398486 C67.0131455,93.4595491 66.1588319,93.4224375 65.347568,93.2012526 C64.5095836,92.9719031 63.7265247,92.5510579 63.1126955,92.0136824 C62.5597297,91.5297475 62.161149,90.9626827 62.0230931,90.3874534 C62.0334844,90.2746342 62.0409068,90.1625573 62.0431335,90.0489959 C64.2238227,89.6585822 65.8263102,88.3552239 65.8263102,86.8076715 C65.8263102,84.9513508 63.5209253,83.4461055 60.6781616,83.4461055 Z M45.9982189,49.3665516 C45.2700854,49.3665516 44.6800078,49.9566255 44.6800078,50.6854967 C44.6800078,51.4128835 45.2700854,52.0036997 45.9982189,52.0036997 C46.7270946,52.0036997 47.3171722,51.4128835 47.3171722,50.6854967 C47.3171722,49.9566255 46.7270946,49.3665516 45.9982189,49.3665516 Z M48.6932776,53.4376907 C47.9651442,53.4376907 47.3750666,54.0285069 47.3750666,54.7566359 C47.3750666,55.4847648 47.9651442,56.0748388 48.6932776,56.0748388 C49.4221534,56.0748388 50.0122309,55.4847648 50.0122309,54.7566359 C50.0122309,54.0285069 49.4221534,53.4376907 48.6932776,53.4376907 Z M75.3558776,49.3665516 C74.6277441,49.3665516 74.0376665,49.9566255 74.0376665,50.6854967 C74.0376665,51.4128835 74.6277441,52.0036997 75.3558776,52.0036997 C76.0847533,52.0036997 76.6748309,51.4128835 76.6748309,50.6854967 C76.6748309,49.9566255 76.0847533,49.3665516 75.3558776,49.3665516 Z M72.6615611,53.4376907 C71.9326854,53.4376907 71.3426078,54.0285069 71.3426078,54.7566359 C71.3426078,55.4847648 71.9326854,56.0748388 72.6615611,56.0748388 C73.3896945,56.0748388 73.9797721,55.4847648 73.9797721,54.7566359 C73.9797721,54.0285069 73.3896945,53.4376907 72.6615611,53.4376907 Z M77.8794798,53.4376907 C77.1506041,53.4376907 76.5605265,54.0285069 76.5605265,54.7566359 C76.5605265,55.4847648 77.1506041,56.0748388 77.8794798,56.0748388 C78.6068711,56.0748388 79.1969486,55.4847648 79.1969486,54.7566359 C79.1969486,54.0285069 78.6068711,53.4376907 77.8794798,53.4376907 Z M43.4753589,53.4376907 C42.7472254,53.4376907 42.1571478,54.0285069 42.1571478,54.7566359 C42.1571478,55.4847648 42.7472254,56.0748388 43.4753589,56.0748388 C44.2034924,56.0748388 44.7943122,55.4847648 44.7943122,54.7566359 C44.7943122,54.0285069 44.2034924,53.4376907 43.4753589,53.4376907 Z M60.6781616,0.404516129 C77.3198339,0.404516129 92.387966,7.15065717 103.293639,18.0570051 C114.200054,28.9633531 120.946237,44.0306501 120.946237,60.6729622 C120.946237,77.3152743 114.200054,92.3825714 103.293639,103.288919 C92.387966,114.196009 77.3198339,120.942151 60.6781616,120.942151 C44.0350048,120.942151 28.9676149,114.196009 18.0611998,103.288919 C7.15478473,92.3825714 0.408602151,77.3152743 0.408602151,60.6729622 C0.408602151,44.0306501 7.15478473,28.9633531 18.0611998,18.0570051 C28.9676149,7.15065717 44.0350048,0.404516129 60.6781616,0.404516129 L60.6781616,0.404516129 Z" id="Fill-6" fill="#471F1F"></path>
                <path d="M35.1397849,111.550947 C35.1397849,111.550947 36.6269184,108.509624 38.4736103,106.736614 C40.3195831,104.96499 41.6398815,104.598065 41.6398815,104.598065 L45.3548387,112.957032 L45.0283597,114.813118 L35.1397849,111.550947" id="Fill-7" fill="#471F1F"></path>
                <path d="M86.2150538,111.550947 C86.2150538,111.550947 84.7286394,108.509624 82.8819475,106.736614 C81.0352556,104.96499 79.7149573,104.598065 79.7149573,104.598065 L76,112.957032 L76.3257599,114.813118 L86.2150538,111.550947" id="Fill-8" fill="#471F1F"></path>
            </g>
        </g>
    </g>
</svg>